<svg xmlns="http://www.w3.org/2000/svg" width="32" height="32" viewBox="0 0 32 32"><g fill="#803F98"><path d="M5.3 7.4c.1 0 .3-.1.4-.2.5-.5 1-1.1 1.5-1.5.2-.2.3-.5.1-.7-.2-.2-.5-.2-.7 0C6 5.5 5.5 6 5 6.6c-.2.2-.2.5 0 .7.1.1.2.1.3.1zM2.5 12.2h.2c.2 0 .4-.1.5-.3.2-.7.5-1.3.8-2 .1-.2 0-.5-.2-.7-.2-.1-.5 0-.7.2l-.9 2.1c-.1.3 0 .6.3.7zM9.7 4h.2c.6-.3 1.3-.6 2-.8.3-.1.4-.4.3-.6-.1-.3-.4-.4-.6-.3-.7.2-1.4.5-2.1.9-.3 0-.4.3-.3.5.1.2.3.3.5.3zM16 1.5h-1c-.3 0-.5.3-.5.5 0 .3.2.5.5.5h1V16H2.5v-1c0-.3-.2-.5-.5-.5s-.5.2-.5.5v1.2c.1 7.9 6.6 14.3 14.5 14.3 8 0 14.5-6.5 14.5-14.5S24 1.5 16 1.5z"/></g><path fill="#fff" d="M16 26c5.5 0 10-4.5 10-10S21.5 6 16 6v1c5 0 9 4 9 9s-4 9-9 9-9-4-9-9H6c0 5.5 4.5 10 10 10z"/></svg>