<svg xmlns="http://www.w3.org/2000/svg" width="32" height="32" viewBox="0 0 32 32"><g fill="#A0A0A0"><path d="M22 9h-1V8c0-.3-.2-.5-.5-.5s-.5.2-.5.5v1h-8V8c0-.3-.2-.5-.5-.5s-.5.2-.5.5v1h-1c-1.1 0-2 .9-2 2v2h16v-2c0-1.1-.9-2-2-2zM8 21c0 1.7 1.3 3 3 3h10c1.7 0 3-1.3 3-3v-6H8v6zm9-4h3v3h-3v-3z"/></g><path fill="#A0A0A0" d="M16.5 30.5c-.3 0-.5-.2-.5-.5s.2-.5.5-.5c.6 0 1.3-.1 1.9-.2.3-.1.5.1.6.4s-.1.5-.4.6c-.7.1-1.4.2-2.1.2zm-2.9-.2s-.1 0 0 0c-.8-.1-1.4-.3-2-.5-.3-.1-.4-.4-.3-.6.1-.3.4-.4.6-.3.6.2 1.2.3 1.8.5.3 0 .5.3.4.6-.1.1-.3.3-.5.3zm7.7-.8c-.2 0-.4-.1-.5-.3-.1-.3 0-.5.3-.7.6-.2 1.1-.5 1.7-.8.2-.1.5-.1.7.2.1.2.1.5-.2.7l-1.8.9h-.2zM9 28.6c-.1 0-.2 0-.2-.1-.6-.3-1.1-.7-1.7-1.1-.2-.1-.3-.4-.1-.7.2-.2.5-.3.7-.1.5.4 1 .7 1.6 1.1.2.1.3.4.2.7-.1.1-.3.2-.5.2zm16.4-1.7c-.1 0-.3-.1-.4-.2-.2-.2-.2-.5 0-.7.5-.4.9-.9 1.3-1.4.2-.2.5-.2.7-.1.2.2.2.5.1.7-.4.5-.9 1-1.4 1.5-.1.2-.2.2-.3.2zM5.3 25.5c-.1 0-.3-.1-.4-.2-.4-.5-.8-1.1-1.2-1.6-.1-.2-.1-.5.2-.7.2-.1.5-.1.7.2.3.5.7 1 1.1 1.5.2.2.2.5-.1.7-.1.1-.2.1-.3.1zm23.1-2.4c-.1 0-.2 0-.2-.1-.2-.1-.3-.4-.2-.7.3-.6.6-1.1.8-1.7.1-.3.4-.4.6-.3.3.1.4.4.3.6-.2.6-.5 1.2-.8 1.8-.2.3-.4.4-.5.4zM2.9 21.3c-.2 0-.4-.1-.5-.3-.3-.6-.4-1.3-.6-2-.1-.3.1-.5.4-.6.3-.1.5.1.6.4.1.6.3 1.2.5 1.8.1.3 0 .5-.3.6 0 .1-.1.1-.1.1zm27-2.9c-.1 0-.1 0 0 0-.3 0-.5-.3-.5-.6.1-.6.1-1.2.1-1.9 0-.3.2-.5.5-.5s.5.2.5.5v.1c0 .7 0 1.4-.1 2-.1.3-.3.4-.5.4zM1.5 16c0-.7 0-1.4.1-2 0-.3.3-.5.6-.4.3 0 .5.3.4.6-.1.6-.1 1.2-.1 1.9 0 .3-.2.5-.5.5-.3-.1-.5-.3-.5-.6m28.2-2.5c-.2 0-.4-.2-.5-.4-.1-.6-.3-1.2-.5-1.8-.1-.3 0-.5.3-.6.3-.1.5 0 .6.3.2.6.4 1.3.6 1.9.1.3-.1.5-.4.6h-.1zM2.8 11.7h-.2c-.3-.1-.4-.4-.3-.6.2-.6.5-1.3.8-1.9.2-.2.5-.3.8-.2.2.1.3.4.2.7-.3.6-.5 1.1-.8 1.7-.1.2-.3.3-.5.3zm25-2.7c-.2 0-.3-.1-.4-.2-.3-.5-.7-1-1.1-1.5-.2-.2-.2-.5.1-.7.2-.2.5-.2.7.1.4.5.8 1.1 1.2 1.6.1.2.1.5-.2.7h-.3zM5.3 7.5c-.1 0-.2 0-.3-.1-.3-.2-.3-.5-.1-.7.4-.5.9-1 1.4-1.5.2-.2.5-.2.7 0 .2.2.2.5 0 .7L5.6 7.3c-.1.2-.2.2-.3.2zm19.3-2.1c-.1 0-.2 0-.3-.1-.5-.4-1-.7-1.6-1-.2-.1-.3-.4-.2-.7.1-.2.4-.3.7-.2.6.3 1.1.7 1.7 1.1.2.2.2.5.1.7-.1.2-.3.2-.4.2zM9 4.4c-.2 0-.3-.1-.4-.2-.2-.3-.1-.6.1-.7l1.8-.9c.3-.1.5 0 .7.3.1.3 0 .5-.3.7-.6.1-1.1.4-1.7.7-.1.1-.1.1-.2.1zm11.3-1.2h-.2c-.6-.2-1.2-.3-1.8-.4-.3 0-.5-.3-.4-.6 0-.3.3-.5.6-.4.7.1 1.3.3 2 .5.3.1.4.4.3.6-.1.1-.3.3-.5.3zm-6.8-.5c-.2 0-.4-.2-.5-.4 0-.3.1-.5.4-.6.7-.1 1.3-.2 2-.2.3 0 .6.2.6.5s-.2.5-.5.5c-.6 0-1.3.1-2 .2.1 0 .1 0 0 0z"/></svg>