<svg xmlns="http://www.w3.org/2000/svg" width="32" height="32" viewBox="0 0 32 32"><g fill="#803F98"><path d="M12.5 2.4c-.1-.3-.4-.4-.6-.3-.7.2-1.3.4-1.9.7-.3.1-.4.4-.3.7.1.2.3.3.5.3h.2c.6-.4 1.2-.6 1.8-.8.2 0 .4-.3.3-.6zM7.9 5.2c.2-.2.3-.5.1-.7-.2-.2-.5-.3-.7-.1-.6.4-1.1.9-1.6 1.3-.2.2-.2.5 0 .7.1.2.3.2.4.2s.3 0 .4-.1c.4-.5.9-.9 1.4-1.3zM4.1 22.5c-.1-.2-.4-.3-.7-.2-.2.1-.3.4-.2.7.3.6.7 1.2 1.1 1.7.1.1.2.2.4.2.1 0 .2 0 .3-.1.2-.2.3-.5.1-.7-.3-.5-.7-1.1-1-1.6zM2 15.5c.3 0 .5-.2.5-.5 0-.6.1-1.3.3-1.9.1-.3-.1-.5-.4-.6-.3-.1-.5.1-.6.4-.1.7-.2 1.4-.3 2 0 .3.2.6.5.6zM3 10.6h.2c.2 0 .4-.1.5-.3.3-.5.6-1.1.9-1.6.2-.2.1-.5-.1-.7-.3-.1-.6-.1-.7.2-.4.6-.7 1.2-1 1.8-.1.2 0 .5.2.6zM2.6 17.9c0-.3-.3-.5-.6-.4-.3 0-.5.3-.4.6.1.7.2 1.4.4 2 .1.2.3.4.5.4h.1c.4-.2.5-.4.4-.7-.2-.6-.3-1.2-.4-1.9zM8.7 27.4c-.5-.3-1.1-.7-1.5-1.2-.3-.2-.6-.2-.8.1-.2.2-.2.5.1.7.5.5 1.1.9 1.7 1.2.1.1.2.1.3.1.2 0 .3-.1.4-.2.1-.3 0-.6-.2-.7zM26.2 24.8c-.4.5-.9.9-1.4 1.4-.2.2-.2.5-.1.7.1.1.2.2.4.2.1 0 .2 0 .3-.1.5-.5 1-.9 1.5-1.5.2-.2.2-.5-.1-.7-.1-.2-.4-.2-.6 0zM13.1 29.2c-.6-.1-1.2-.3-1.9-.5-.3-.1-.5 0-.6.3-.1.3 0 .5.3.6.6.2 1.3.4 2 .6h.1c.2 0 .4-.2.5-.4.1-.3-.1-.5-.4-.6zM29.3 20.4c-.3-.1-.5 0-.6.3-.2.6-.5 1.2-.8 1.8-.1.2 0 .5.2.7.1 0 .2.1.2.1.2 0 .3-.1.4-.3.3-.6.6-1.2.9-1.9.1-.3-.1-.6-.3-.7zM17.9 29.4c-.6.1-1.3.1-1.9.1-.3 0-.5.2-.5.5s.2.5.5.5c.7 0 1.4 0 2.1-.1.3 0 .5-.3.4-.6-.1-.3-.3-.5-.6-.4zM22.5 27.9c-.6.3-1.2.6-1.7.8-.3.1-.4.4-.3.6.1.2.3.3.5.3h.2c.6-.2 1.3-.5 1.9-.9.2-.1.3-.4.2-.7-.3-.2-.6-.3-.8-.1zM16 1.5h-1c-.3 0-.5.3-.5.5 0 .3.2.5.5.5h1V16h13.5c0 .6 0 1.3-.1 1.9 0 .3.2.5.4.6h.1c.2 0 .5-.2.5-.4.1-.7.1-1.4.1-2.1C30.5 8 24 1.5 16 1.5z"/></g><path fill="#fff" d="M16 6v1c5 0 9 4 9 9h1c0-5.5-4.5-10-10-10z"/></svg>