<svg xmlns="http://www.w3.org/2000/svg" width="32" height="32" viewBox="0 0 32 32"><path fill="none" d="M0 0h32v32H0z"/><g><path fill="#FF8900" d="M15.3 29.8M15.3 2.2M15.3 29.8M15.3 2.2"/><path fill="#FF8900" d="M16 1.5C8 1.5 1.5 8 1.5 16S8 30.5 16 30.5 30.5 24 30.5 16 24 1.5 16 1.5z"/><path fill="#fff" d="M16 7c-3.9 0-7 3.1-7 7 0 1.2.3 2.3.8 3.3 0 0 .6 1 .9 1.4L16 26l5.2-7.4c.3-.4.9-1.4.9-1.4.5-1 .8-2.1.8-3.3.1-3.8-3-6.9-6.9-6.9zm0 10.5c-1.9 0-3.5-1.6-3.5-3.5s1.6-3.5 3.5-3.5 3.5 1.6 3.5 3.5-1.6 3.5-3.5 3.5z"/></g></svg>