<svg xmlns="http://www.w3.org/2000/svg" width="32" height="32" viewBox="0 0 32 32"><path fill="#24AB38" d="M16 1.5C8 1.5 1.5 8 1.5 16S8 30.5 16 30.5 30.5 24 30.5 16 24 1.5 16 1.5z"/><path fill="#fff" d="M16.7 22.1l-.2 1.7c0 .2-.2.4-.6.4-.6.1-1 .1-1.5.1l.2-2.1c-1.1-.1-2.2-.6-2.9-1.2-.2-.3-.2-1.2.2-1.6.2-.3.4-.4.6-.2.7.5 2 1 3.1 1 1.3 0 1.8-.7 1.8-1.3 0-.9-.8-1.3-2.7-2.3-2-1.1-2.9-2.1-2.9-3.7 0-2.4 2.1-3.4 3.4-3.5l.2-1.2c0-.3.2-.5.5-.5.5-.1 1-.1 1.7-.1l-.3 1.8c.7 0 1.9.4 2.5 1 0 .5-.4 1.4-1.1 1.5-.8-.4-1.7-.7-2.4-.7-1.4 0-1.7.8-1.7 1.1 0 .8.7 1.2 2.5 2.2 1.9 1 3.2 1.7 3.2 3.7.1 2.6-1.9 3.7-3.6 3.9z"/></svg>