<svg xmlns="http://www.w3.org/2000/svg" width="32" height="32" viewBox="0 0 32 32"><path fill="none" d="M0 0h32v32H0z"/><g><path fill="none" stroke="#00ADEE" stroke-width="1.4" stroke-miterlimit="10" d="M15.3 30M15.3 2"/><g fill="#803F98"><path d="M2.6 17.4c0-.3-.3-.5-.5-.4-.3 0-.5.3-.4.5.1.7.2 1.3.3 2 .1.2.3.4.5.4h.1c.3-.1.4-.3.4-.6-.3-.6-.4-1.3-.4-1.9zM3.9 21.9c-.1-.2-.4-.4-.7-.2-.2.1-.4.4-.2.7.3.6.6 1.2 1 1.8.1.1.3.2.4.2.1 0 .2 0 .3-.1.2-.2.3-.5.1-.7-.3-.6-.7-1.1-.9-1.7zM2 15s.1 0 0 0c.3 0 .5-.2.5-.4.1-.6.2-1.2.3-1.9.1-.3-.1-.5-.4-.6-.3-.1-.5.1-.6.4-.2.7-.3 1.3-.3 2 0 .3.2.5.5.5zM3.2 10.3c.1 0 .1.1.2.1.2 0 .4-.1.5-.3.2-.6.5-1.1.9-1.6.2-.2.1-.5-.1-.7s-.6-.1-.7.1c-.4.6-.8 1.2-1 1.8-.2.2-.1.5.2.6zM6.6 25.7c-.2-.2-.5-.2-.7 0-.2.2-.2.5 0 .7.5.5 1 .9 1.5 1.3.1.1.2.1.3.1.2 0 .3-.1.4-.2.2-.2.1-.5-.1-.7-.5-.4-.9-.8-1.4-1.2zM12.3 29l-1.8-.6c-.3-.1-.5 0-.7.3-.1.3 0 .5.3.7.6.3 1.3.5 1.9.7h.1c.2 0 .4-.1.5-.4.1-.4-.1-.6-.3-.7zM10.3 3.7h.2c.5-.3 1.1-.5 1.7-.7.3-.1.4-.4.3-.6 0-.3-.3-.4-.5-.3-.6.2-1.3.4-1.9.7-.3.1-.4.4-.3.6.1.2.3.3.5.3zM6.3 6.4c.1 0 .3 0 .3-.1.5-.4.9-.8 1.4-1.2.2-.2.3-.5.1-.7-.1-.2-.4-.3-.6-.1-.6.4-1.1.8-1.6 1.3-.2.2-.2.5 0 .7.1.1.2.1.4.1zM16 1.5h-1c-.3 0-.5.3-.5.5 0 .3.2.5.5.5h1v27h-1c-.3 0-.5.2-.5.5s.2.5.5.5h1c8 0 14.5-6.5 14.5-14.5S24 1.5 16 1.5z"/></g><path fill="#fff" d="M26 16c0-5.5-4.5-10-10-10v1c5 0 9 4 9 9s-4 9-9 9v1c5.5 0 10-4.5 10-10z"/></g></svg>