<svg xmlns="http://www.w3.org/2000/svg" width="32" height="32" viewBox="0 0 32 32"><g fill="#00ADEE"><path d="M16 1.5c-.3 0-.7 0-1 .1-.7 0-1.4.1-2 .3-.3.1-.4.3-.4.6.1.2.3.4.5.4h.1c.6-.1 1.2-.2 1.9-.3v26.9c-.6 0-1.2-.1-1.8-.3-.3-.1-.5.1-.6.4-.1.3.1.5.4.6.7.1 1.3.2 2 .3.3 0 .7.1 1 .1 8 0 14.5-6.5 14.5-14.5S24 1.5 16 1.5zM3 19.8c-.1-.3-.4-.4-.6-.3-.3.1-.4.4-.3.6.2.7.4 1.3.7 1.9.1.2.3.3.5.3h.2c.3-.1.4-.4.2-.7-.2-.6-.5-1.2-.7-1.8zM2.4 12.5h.1c.2 0 .4-.1.5-.4.2-.6.4-1.2.7-1.8.1-.3 0-.5-.2-.7-.3-.1-.5 0-.7.2-.3.6-.5 1.3-.7 1.9-.1.5.1.8.3.8zM2.5 17v-2c0-.3-.2-.5-.5-.5s-.5.2-.5.5v2c0 .3.2.5.5.5s.6-.2.5-.5zM4.8 8.1c.2 0 .3-.1.4-.2.4-.5.8-1 1.3-1.5.2-.2.2-.5 0-.7s-.5-.2-.7 0c-.5.5-.9 1-1.4 1.6-.2.2-.1.6.1.7.1.1.2.1.3.1zM5.2 24.1c-.2-.2-.5-.3-.7-.1-.2.2-.3.5-.1.7.4.5.9 1.1 1.4 1.6.1.1.2.1.4.1.1 0 .3 0 .4-.1.2-.2.2-.5 0-.7-.6-.5-1-1-1.4-1.5zM10.4 28.3c-.6-.3-1.2-.6-1.7-.9-.2-.2-.5-.1-.7.2-.1.2-.1.5.2.7.6.4 1.2.7 1.8 1h.2c.2 0 .4-.1.5-.3.1-.3 0-.6-.3-.7zM8.4 4.7c.1 0 .2 0 .3-.1.5-.3 1.1-.6 1.7-.9.3-.1.4-.4.2-.7-.1-.3-.4-.4-.7-.2-.6.3-1.2.6-1.8 1-.2.2-.2.5-.1.7.1.2.3.2.4.2z"/></g><path fill="#00ADEE" d="M15 41c-.3 0-.7 0-1 .1v.5c.3 0 .7-.1 1-.1-.3 0-.7 0-1 .1v27.9c.3 0 .7.1 1 .1-.3 0-.7 0-1-.1v.5c.3 0 .7.1 1 .1 8 0 14.5-6.5 14.5-14.5S23 41 15 41z"/><path fill="#fff" d="M20.9 13.2c0-2.7-2.2-4.9-4.9-4.9v9.8c2.7 0 4.9-2.2 4.9-4.9zM16 20.9v8.6c3.6 0 6.9-1.4 9.3-3.8-1.2-2.8-4.9-4.8-9.3-4.8z"/></svg>