<svg xmlns="http://www.w3.org/2000/svg" width="32" height="32" viewBox="0 0 32 32"><g><path fill="#EB2538" d="M16 1.5C8 1.5 1.5 8 1.5 16S8 30.5 16 30.5 30.5 24 30.5 16 24 1.5 16 1.5zm-7.5 17"/><path fill="#fff" d="M23 13h-2.3l.7-2.2c.1-.3-.1-.5-.3-.6-.3-.1-.5.1-.6.3l-.9 2.5h-5.2l.7-2.2c.1-.3-.1-.5-.3-.6-.3-.1-.5.1-.6.3l-.9 2.5H11c-.3 0-.5.2-.5.5s.2.5.5.5h2l-1.3 4H9c-.3 0-.5.2-.5.5s.2.5.5.5h2.3l-.7 2.2c-.1.3.1.5.3.6h.2c.2 0 .4-.1.5-.3l.8-2.5h5.2l-.7 2.2c-.1.3.1.5.3.6h.2c.2 0 .4-.1.5-.3l.8-2.5H21c.3 0 .5-.2.5-.5s-.2-.5-.5-.5h-2l1.3-4H23c.3 0 .5-.2.5-.5s-.2-.5-.5-.5zm-5 5h-5.2l1.3-4h5.2L18 18z"/></g></svg>